<svg xmlns="http://www.w3.org/2000/svg" xmlns:xlink="http://www.w3.org/1999/xlink" preserveAspectRatio="xMidYMid" width="322.126" height="27.031" viewBox="0 0 322.126 27.031">
  <defs></defs>
  <path fill="#fff" d="M16.938,2.031 C16.938,2.031 5.624,4.935 2.938,9.031 C-0.625,14.466 -1.358,17.357 2.938,20.031 C7.234,22.705 19.070,24.504 29.938,25.031 C40.806,25.558 145.966,27.150 157.938,27.031 C169.910,26.912 274.573,24.228 279.938,24.031 C285.303,23.834 311.436,23.315 314.938,22.031 C318.440,20.747 323.156,18.293 321.938,12.031 C320.720,5.769 314.707,4.145 309.938,3.031 C300.988,0.941 207.253,0.040 191.938,0.031 C191.938,0.031 101.604,-0.033 87.938,0.031 C74.272,0.095 16.938,2.031 16.938,2.031 Z" class="cls-1"/>
</svg>
